HIERARCHY
ROOT Hips
{
	OFFSET -395.419647 -566.670227 89.000702
	CHANNELS 6 Xposition Yposition Zposition Zrotation Yrotation Xrotation
	JOINT Spine
	{
		OFFSET 0.000000 2.080078 8.814247
		CHANNELS 6 Xposition Yposition Zposition Zrotation Yrotation Xrotation
		JOINT Spine1
		{
			OFFSET 0.000000 0.000000 8.844139
			CHANNELS 6 Xposition Yposition Zposition Zrotation Yrotation Xrotation
			JOINT Spine2
			{
				OFFSET 0.000000 0.000000 11.682266
				CHANNELS 6 Xposition Yposition Zposition Zrotation Yrotation Xrotation
				JOINT Spine3
				{
					OFFSET 0.000000 0.000000 11.746704
					CHANNELS 6 Xposition Yposition Zposition Zrotation Yrotation Xrotation
					JOINT Neck
					{
						OFFSET 0.000000 0.000000 17.658264
						CHANNELS 6 Xposition Yposition Zposition Zrotation Yrotation Xrotation
						JOINT Neck1
						{
							OFFSET 0.000000 0.000000 5.101517
							CHANNELS 6 Xposition Yposition Zposition Zrotation Yrotation Xrotation
							JOINT Head
							{
								OFFSET 0.000000 0.000000 5.101517
								CHANNELS 6 Xposition Yposition Zposition Zrotation Yrotation Xrotation
								JOINT HeadEnd
								{
									OFFSET 0.000000 0.000000 11.655090
									CHANNELS 6 Xposition Yposition Zposition Zrotation Yrotation Xrotation
									End Site
									{
										OFFSET 0.000000 0.000000 0.100006
									}
								}
							}
						}
					}
					JOINT RightShoulder
					{
						OFFSET -2.625397 0.000000 11.175217
						CHANNELS 6 Xposition Yposition Zposition Zrotation Yrotation Xrotation
						JOINT RightArm
						{
							OFFSET 0.000000 0.000000 10.434708
							CHANNELS 6 Xposition Yposition Zposition Zrotation Yrotation Xrotation
							JOINT RightForeArm
							{
								OFFSET 0.000000 0.000000 29.628418
								CHANNELS 6 Xposition Yposition Zposition Zrotation Yrotation Xrotation
								JOINT RightHand
								{
									OFFSET 0.000000 0.000000 22.857605
									CHANNELS 6 Xposition Yposition Zposition Zrotation Yrotation Xrotation
									JOINT RightHandThumb1
									{
										OFFSET -2.867310 -2.944275 3.959564
										CHANNELS 6 Xposition Yposition Zposition Zrotation Yrotation Xrotation
										JOINT RightHandThumb2
										{
											OFFSET 0.000000 0.000000 3.350403
											CHANNELS 6 Xposition Yposition Zposition Zrotation Yrotation Xrotation
											JOINT RightHandThumb3
											{
												OFFSET 0.000000 0.000000 3.756516
												CHANNELS 6 Xposition Yposition Zposition Zrotation Yrotation Xrotation
												JOINT RightHandThumb4
												{
													OFFSET 0.000000 0.000000 3.147339
													CHANNELS 6 Xposition Yposition Zposition Zrotation Yrotation Xrotation
													End Site
													{
														OFFSET 0.000000 0.000000 0.100006
													}
												}
											}
										}
									}
									JOINT RightHandIndex1
									{
										OFFSET -0.086761 -2.345276 10.030899
										CHANNELS 6 Xposition Yposition Zposition Zrotation Yrotation Xrotation
										JOINT RightHandIndex2
										{
											OFFSET 0.000000 0.000000 4.061096
											CHANNELS 6 Xposition Yposition Zposition Zrotation Yrotation Xrotation
											JOINT RightHandIndex3
											{
												OFFSET 0.000000 0.000000 3.248871
												CHANNELS 6 Xposition Yposition Zposition Zrotation Yrotation Xrotation
												JOINT RightHandIndex4
												{
													OFFSET 0.000000 0.000000 2.639709
													CHANNELS 6 Xposition Yposition Zposition Zrotation Yrotation Xrotation
													End Site
													{
														OFFSET 0.000000 0.000000 0.100006
													}
												}
											}
										}
									}
									JOINT RightHandMiddle1
									{
										OFFSET 0.104095 -0.006775 9.502945
										CHANNELS 6 Xposition Yposition Zposition Zrotation Yrotation Xrotation
										JOINT RightHandMiddle2
										{
											OFFSET 0.000000 0.000000 4.568726
											CHANNELS 6 Xposition Yposition Zposition Zrotation Yrotation Xrotation
											JOINT RightHandMiddle3
											{
												OFFSET 0.000000 0.000000 3.654984
												CHANNELS 6 Xposition Yposition Zposition Zrotation Yrotation Xrotation
												JOINT RightHandMiddle4
												{
													OFFSET 0.000000 0.000000 2.741241
													CHANNELS 6 Xposition Yposition Zposition Zrotation Yrotation Xrotation
													End Site
													{
														OFFSET 0.000000 0.000000 0.100006
													}
												}
											}
										}
									}
									JOINT RightHandRing1
									{
										OFFSET 0.086761 2.267456 8.921707
										CHANNELS 6 Xposition Yposition Zposition Zrotation Yrotation Xrotation
										JOINT RightHandRing2
										{
											OFFSET 0.000000 0.000000 4.061096
											CHANNELS 6 Xposition Yposition Zposition Zrotation Yrotation Xrotation
											JOINT RightHandRing3
											{
												OFFSET 0.000000 0.000000 3.654984
												CHANNELS 6 Xposition Yposition Zposition Zrotation Yrotation Xrotation
												JOINT RightHandRing4
												{
													OFFSET 0.000000 0.000000 2.741241
													CHANNELS 6 Xposition Yposition Zposition Zrotation Yrotation Xrotation
													End Site
													{
														OFFSET 0.000000 0.000000 0.100006
													}
												}
											}
										}
									}
									JOINT RightHandPinky1
									{
										OFFSET -0.173492 4.467224 7.976990
										CHANNELS 6 Xposition Yposition Zposition Zrotation Yrotation Xrotation
										JOINT RightHandPinky2
										{
											OFFSET 0.000000 0.000000 3.350403
											CHANNELS 6 Xposition Yposition Zposition Zrotation Yrotation Xrotation
											JOINT RightHandPinky3
											{
												OFFSET 0.000000 0.000000 2.842758
												CHANNELS 6 Xposition Yposition Zposition Zrotation Yrotation Xrotation
												JOINT RightHandPinky4
												{
													OFFSET 0.000000 0.000000 2.639709
													CHANNELS 6 Xposition Yposition Zposition Zrotation Yrotation Xrotation
													End Site
													{
														OFFSET 0.000000 0.000000 0.100006
													}
												}
											}
										}
									}
									JOINT RightForeArmEnd
									{
										OFFSET 0.000000 0.000000 0.000000
										CHANNELS 6 Xposition Yposition Zposition Zrotation Yrotation Xrotation
										End Site
										{
											OFFSET 0.000000 0.000000 0.100006
										}
									}
								}
								JOINT RightArmEnd
								{
									OFFSET 0.000000 0.000000 0.000000
									CHANNELS 6 Xposition Yposition Zposition Zrotation Yrotation Xrotation
									End Site
									{
										OFFSET 0.000000 0.000000 0.100006
									}
								}
							}
						}
					}
					JOINT LeftShoulder
					{
						OFFSET 2.625397 0.000000 11.175217
						CHANNELS 6 Xposition Yposition Zposition Zrotation Yrotation Xrotation
						JOINT LeftArm
						{
							OFFSET 0.000000 0.000000 10.813629
							CHANNELS 6 Xposition Yposition Zposition Zrotation Yrotation Xrotation
							JOINT LeftForeArm
							{
								OFFSET 0.000000 0.000000 28.724777
								CHANNELS 6 Xposition Yposition Zposition Zrotation Yrotation Xrotation
								JOINT LeftHand
								{
									OFFSET 0.644379 0.328857 25.716171
									CHANNELS 6 Xposition Yposition Zposition Zrotation Yrotation Xrotation
									JOINT LeftHandThumb1
									{
										OFFSET 2.867310 -2.944275 3.959564
										CHANNELS 6 Xposition Yposition Zposition Zrotation Yrotation Xrotation
										JOINT LeftHandThumb2
										{
											OFFSET 0.000000 0.000000 3.350403
											CHANNELS 6 Xposition Yposition Zposition Zrotation Yrotation Xrotation
											JOINT LeftHandThumb3
											{
												OFFSET 0.000000 0.000000 3.756516
												CHANNELS 6 Xposition Yposition Zposition Zrotation Yrotation Xrotation
												JOINT LeftHandThumb4
												{
													OFFSET 0.000000 0.000000 3.100006
													CHANNELS 6 Xposition Yposition Zposition Zrotation Yrotation Xrotation
													End Site
													{
														OFFSET 0.000000 0.000000 0.100006
													}
												}
											}
										}
									}
									JOINT LeftHandIndex1
									{
										OFFSET 0.086761 -2.345276 10.030899
										CHANNELS 6 Xposition Yposition Zposition Zrotation Yrotation Xrotation
										JOINT LeftHandIndex2
										{
											OFFSET 0.000000 0.000000 4.061096
											CHANNELS 6 Xposition Yposition Zposition Zrotation Yrotation Xrotation
											JOINT LeftHandIndex3
											{
												OFFSET 0.000000 0.000000 3.248871
												CHANNELS 6 Xposition Yposition Zposition Zrotation Yrotation Xrotation
												JOINT LeftHandIndex4
												{
													OFFSET 0.000000 0.000000 2.639709
													CHANNELS 6 Xposition Yposition Zposition Zrotation Yrotation Xrotation
													End Site
													{
														OFFSET 0.000000 0.000000 0.100006
													}
												}
											}
										}
									}
									JOINT LeftHandMiddle1
									{
										OFFSET -0.104095 -0.006775 9.502945
										CHANNELS 6 Xposition Yposition Zposition Zrotation Yrotation Xrotation
										JOINT LeftHandMiddle2
										{
											OFFSET 0.000000 0.000000 4.568726
											CHANNELS 6 Xposition Yposition Zposition Zrotation Yrotation Xrotation
											JOINT LeftHandMiddle3
											{
												OFFSET 0.000000 0.000000 3.654984
												CHANNELS 6 Xposition Yposition Zposition Zrotation Yrotation Xrotation
												JOINT LeftHandMiddle4
												{
													OFFSET 0.000000 0.000000 2.741241
													CHANNELS 6 Xposition Yposition Zposition Zrotation Yrotation Xrotation
													End Site
													{
														OFFSET 0.000000 0.000000 0.100006
													}
												}
											}
										}
									}
									JOINT LeftHandRing1
									{
										OFFSET -0.086761 2.267456 8.921707
										CHANNELS 6 Xposition Yposition Zposition Zrotation Yrotation Xrotation
										JOINT LeftHandRing2
										{
											OFFSET 0.000000 0.000000 4.061096
											CHANNELS 6 Xposition Yposition Zposition Zrotation Yrotation Xrotation
											JOINT LeftHandRing3
											{
												OFFSET 0.000000 0.000000 3.654984
												CHANNELS 6 Xposition Yposition Zposition Zrotation Yrotation Xrotation
												JOINT LeftHandRing4
												{
													OFFSET 0.000000 0.000000 2.741241
													CHANNELS 6 Xposition Yposition Zposition Zrotation Yrotation Xrotation
													End Site
													{
														OFFSET 0.000000 0.000000 0.100006
													}
												}
											}
										}
									}
									JOINT LeftHandPinky1
									{
										OFFSET 0.173492 4.467224 7.976990
										CHANNELS 6 Xposition Yposition Zposition Zrotation Yrotation Xrotation
										JOINT LeftHandPinky2
										{
											OFFSET 0.000000 0.000000 3.350403
											CHANNELS 6 Xposition Yposition Zposition Zrotation Yrotation Xrotation
											JOINT LeftHandPinky3
											{
												OFFSET 0.000000 0.000000 2.842758
												CHANNELS 6 Xposition Yposition Zposition Zrotation Yrotation Xrotation
												JOINT LeftHandPinky4
												{
													OFFSET 0.000000 0.000000 2.639709
													CHANNELS 6 Xposition Yposition Zposition Zrotation Yrotation Xrotation
													End Site
													{
														OFFSET 0.000000 0.000000 0.100006
													}
												}
											}
										}
									}
									JOINT LeftForeArmEnd
									{
										OFFSET 0.000000 0.000000 0.000000
										CHANNELS 6 Xposition Yposition Zposition Zrotation Yrotation Xrotation
										End Site
										{
											OFFSET 0.000000 0.000000 0.100006
										}
									}
								}
								JOINT LeftArmEnd
								{
									OFFSET 0.000000 0.000000 0.000000
									CHANNELS 6 Xposition Yposition Zposition Zrotation Yrotation Xrotation
									End Site
									{
										OFFSET 0.000000 0.000000 0.100006
									}
								}
							}
						}
					}
				}
			}
		}
	}
	JOINT RightUpLeg
	{
		OFFSET -11.289948 0.000000 0.000000
		CHANNELS 6 Xposition Yposition Zposition Zrotation Yrotation Xrotation
		JOINT RightLeg
		{
			OFFSET 0.000000 0.000000 -38.200329
			CHANNELS 6 Xposition Yposition Zposition Zrotation Yrotation Xrotation
			JOINT RightFoot
			{
				OFFSET 0.000000 0.000000 -39.900856
				CHANNELS 6 Xposition Yposition Zposition Zrotation Yrotation Xrotation
				JOINT RightToeBase
				{
					OFFSET 0.000000 -15.261658 0.000001
					CHANNELS 6 Xposition Yposition Zposition Zrotation Yrotation Xrotation
					JOINT RightToeBaseEnd
					{
						OFFSET 0.000000 -7.370728 0.000001
						CHANNELS 6 Xposition Yposition Zposition Zrotation Yrotation Xrotation
						End Site
						{
							OFFSET 0.000000 0.000000 0.100000
						}
					}
				}
				JOINT RightLegEnd
				{
					OFFSET 0.000000 0.000000 0.000000
					CHANNELS 6 Xposition Yposition Zposition Zrotation Yrotation Xrotation
					End Site
					{
						OFFSET 0.000000 0.000000 0.100000
					}
				}
			}
			JOINT RightUpLegEnd
			{
				OFFSET 0.000000 0.000000 0.000000
				CHANNELS 6 Xposition Yposition Zposition Zrotation Yrotation Xrotation
				End Site
				{
					OFFSET 0.000000 0.000000 0.099998
				}
			}
		}
	}
	JOINT LeftUpLeg
	{
		OFFSET 11.315674 0.000000 0.000000
		CHANNELS 6 Xposition Yposition Zposition Zrotation Yrotation Xrotation
		JOINT LeftLeg
		{
			OFFSET 0.000000 0.000000 -38.200329
			CHANNELS 6 Xposition Yposition Zposition Zrotation Yrotation Xrotation
			JOINT LeftFoot
			{
				OFFSET 0.000000 0.000000 -39.900856
				CHANNELS 6 Xposition Yposition Zposition Zrotation Yrotation Xrotation
				JOINT LeftToeBase
				{
					OFFSET 0.000000 -15.261658 0.000001
					CHANNELS 6 Xposition Yposition Zposition Zrotation Yrotation Xrotation
					JOINT LeftToeBaseEnd
					{
						OFFSET 0.000000 -7.539978 0.000001
						CHANNELS 6 Xposition Yposition Zposition Zrotation Yrotation Xrotation
						End Site
						{
							OFFSET 0.000000 0.000000 0.100000
						}
					}
				}
				JOINT LeftLegEnd
				{
					OFFSET 0.000000 0.000000 0.000000
					CHANNELS 6 Xposition Yposition Zposition Zrotation Yrotation Xrotation
					End Site
					{
						OFFSET 0.000000 0.000000 0.100000
					}
				}
			}
			JOINT LeftUpLegEnd
			{
				OFFSET 0.000000 0.000000 0.000000
				CHANNELS 6 Xposition Yposition Zposition Zrotation Yrotation Xrotation
				End Site
				{
					OFFSET 0.000000 0.000000 0.099998
				}
			}
		}
	}
}
MOTION
Frames: 2
Frame Time: 0.016667
14.578064 -26.942932 87.371864 -16.799854 -1.893548 -8.308422 -0.000032 2.080092 8.814261 -0.155245 -1.459083 3.857049 0.000010 -0.000014 8.844149 0.224573 -0.742278 1.037019 0.000007 0.000030 11.682269 5.107675 4.670459 1.258146 0.000006 -0.000023 11.746696 1.583664 7.048046 3.291502 0.000002 -0.000002 17.658272 3.918637 11.034524 12.187788 0.000009 -0.000018 5.101525 1.634747 -0.122870 -0.048493 -0.000003 0.000003 5.101557 -0.941396 -0.721206 -27.466919 0.000001 -0.000002 11.655068 0.000000 0.000002 0.000000 -2.625406 0.000016 11.175228 -1.704943 -82.699568 0.132026 -0.000002 0.000010 10.434720 -5.480051 -85.876330 -20.084769 0.000008 -0.000015 29.628395 25.697455 2.181211 106.359549 -0.000038 -0.000015 22.857567 80.711717 -59.078008 -17.531648 -2.867268 -2.944290 3.959564 31.576139 -21.623047 45.187449 0.000031 0.000015 3.350388 -22.400531 10.859965 -38.712734 -0.000008 0.000015 3.756531 -14.779489 9.199697 -26.373864 -0.000010 0.000021 3.147343 -0.000003 0.000002 0.000001 -0.086769 -2.345354 10.030884 -24.373078 -47.328573 23.842145 -0.000002 0.000024 4.061104 -1.336830 -35.449478 5.742627 0.000015 -0.000006 3.248901 -1.836820 -35.449471 5.742617 0.000009 -0.000001 2.639729 -0.000001 0.000000 -0.000000 0.104120 -0.006788 9.502960 -15.606875 -45.650191 16.944897 -0.000008 0.000026 4.568754 -0.086160 -33.205299 1.965740 -0.000002 -0.000025 3.654987 -0.586161 -33.205357 1.965719 0.000004 -0.000006 2.741268 0.000001 0.000003 -0.000001 0.086813 2.267447 8.921738 -3.622492 -44.883338 8.778981 -0.000005 0.000022 4.061110 -0.400432 -31.356541 -2.135913 -0.000020 -0.000001 3.654982 0.599574 -31.356548 -2.135933 -0.000010 -0.000007 2.741242 0.000000 -0.000001 0.000001 -0.173454 4.467236 7.977018 8.604767 -40.693690 1.474679 -0.000017 0.000028 3.350426 -0.596882 -27.332402 -5.766042 0.000012 -0.000017 2.842785 1.403129 -27.332394 -5.766042 -0.000004 -0.000007 2.639712 0.000002 -0.000003 0.000003 0.000040 0.000013 0.000040 -0.000002 0.000002 0.000000 -0.000014 -0.000005 0.000007 0.000001 -0.000001 0.000000 2.625375 -0.000019 11.175214 12.857194 88.267675 -0.156493 0.000019 0.000023 10.813615 -60.896949 71.543404 -89.507307 -0.000046 -0.000015 28.724827 -24.102223 -1.361742 115.287337 0.644402 0.328889 25.716209 -124.911346 57.577928 -41.156872 2.867329 -2.944290 3.959579 -31.560474 21.436118 45.448417 0.000008 0.000008 3.350395 21.982848 -10.812377 -38.044396 0.000011 0.000015 3.756508 14.504620 -9.107008 -25.920573 -0.000021 0.000000 3.100013 -0.000000 0.000000 0.000001 0.086769 -2.345246 10.030933 -1.519582 46.329631 -7.933068 -0.000002 0.000006 4.061108 -1.061694 33.087257 -5.254092 0.000008 0.000018 3.248848 -1.561680 33.087209 -5.254086 -0.000038 -0.000005 2.639724 -0.000000 -0.000002 -0.000001 -0.104092 -0.006762 9.502955 5.139776 44.892299 0.329231 0.000008 0.000010 4.568758 -0.034531 31.905617 -1.869788 0.000026 0.000004 3.654982 -0.534528 31.905603 -1.869784 -0.000006 0.000022 2.741255 -0.000002 -0.000001 -0.000000 -0.086746 2.267445 8.921722 17.059116 45.626029 12.451305 0.000004 -0.000015 4.061131 -0.321812 33.080355 2.283346 0.000008 0.000016 3.655003 0.678208 33.080362 2.283361 -0.000032 -0.000003 2.741271 -0.000000 0.000002 0.000001 0.173500 4.467243 7.977005 27.239766 41.228453 22.595492 0.000004 -0.000011 3.350426 -0.072877 31.468891 6.832719 -0.000027 -0.000027 2.842739 1.927131 31.468891 6.832748 -0.000034 -0.000004 2.639703 0.000000 0.000001 0.000000 0.000014 -0.000004 -0.000000 -0.000000 0.000002 0.000001 0.000004 0.000002 0.000022 0.000000 0.000003 0.000001 -11.290014 0.000070 0.000027 -1.569618 13.821319 4.952685 -0.000010 0.000022 -38.200340 -1.764888 0.751203 23.049611 -0.000017 0.000042 -39.900829 -10.197561 -10.723060 17.389254 0.000012 -15.261681 0.000010 1.379918 1.746932 -21.507205 -0.000004 -7.370725 0.000001 -0.000000 -0.000000 0.000000 0.000009 0.000000 0.000006 -0.000000 0.000001 0.000002 -0.000003 0.000005 -0.000001 -0.000000 0.000001 -0.000000 11.315632 -0.000026 0.000028 -6.528374 0.893245 0.295915 -0.000019 -0.000133 -38.200314 0.341738 -0.117275 19.551657 -0.000018 0.000007 -39.900852 19.581165 2.287444 13.698672 0.000010 -15.261696 0.000003 -0.726905 -0.735295 -21.788565 0.000000 -7.539918 0.000001 0.000000 -0.000000 0.000000 0.000002 0.000000 -0.000000 -0.000000 0.000000 0.000001 -0.000038 0.000019 -0.000003 -0.000003 -0.000000 -0.000001 
15.074158 -27.073853 87.252800 -16.238961 -2.103363 -9.031683 0.000008 2.080050 8.814260 -0.139942 -1.240977 4.648433 0.000006 0.000027 8.844130 0.260440 -0.693321 1.449964 0.000000 0.000077 11.682270 5.097033 5.023835 1.031092 0.000015 0.000014 11.746708 1.480935 6.841168 2.677196 -0.000004 -0.000027 17.658279 4.100233 10.898801 13.903596 -0.000036 -0.000003 5.101537 1.501378 -0.085461 0.623549 0.000005 0.000027 5.101510 -0.950193 -0.760534 -27.727547 -0.000001 0.000001 11.655074 -0.000000 0.000001 -0.000001 -2.625402 0.000022 11.175225 -0.100230 -85.201187 0.111511 -0.000023 0.000010 10.434698 7.096876 -83.543746 -28.322160 0.000008 -0.000031 29.628387 27.466897 2.281342 110.283233 -0.000034 0.000015 22.857559 79.143062 -62.384079 -17.538512 -2.867294 -2.944275 3.959595 31.546376 -21.249586 45.709542 0.000000 0.000008 3.350380 -21.565849 10.759922 -37.376619 0.000004 0.000008 3.756516 -14.230510 9.012223 -25.467788 0.000016 0.000004 3.147325 -0.000000 -0.000000 -0.000000 -0.086754 -2.345293 10.030914 -22.834938 -44.959372 21.558275 -0.000002 -0.000028 4.061089 -1.113872 -33.557139 5.349094 -0.000007 0.000026 3.248871 -1.613860 -33.557126 5.349097 0.000041 -0.000013 2.639726 0.000003 -0.000004 0.000005 0.104084 -0.006790 9.502968 -14.399432 -42.935621 15.154603 -0.000008 -0.000020 4.568726 -0.007050 -31.178345 1.817276 -0.000011 0.000019 3.654972 -0.507063 -31.178393 1.817277 -0.000009 -0.000002 2.741247 0.000001 -0.000001 0.000000 0.086771 2.267462 8.921730 -2.823259 -41.395010 7.982204 -0.000020 -0.000012 4.061094 -0.501030 -28.908362 -1.935561 0.000010 0.000031 3.654984 0.498961 -28.908342 -1.935546 -0.000002 -0.000006 2.741266 0.000001 -0.000001 0.000000 -0.173485 4.467276 7.976982 8.817434 -36.847665 2.178978 0.000013 0.000017 3.350422 -0.882351 -24.637713 -5.114667 -0.000001 0.000021 2.842754 1.117634 -24.637775 -5.114657 0.000008 0.000003 2.639711 0.000000 -0.000003 0.000001 -0.000002 0.000001 0.000017 -0.000001 0.000006 -0.000001 0.000005 -0.000006 0.000011 0.000001 -0.000000 0.000002 2.625420 0.000013 11.175235 10.800201 90.568732 -0.391003 0.000015 0.000000 10.813630 -57.349690 71.211634 -81.006549 -0.000046 0.000000 28.724752 -24.872074 1.068482 118.073535 0.644405 0.328857 25.716187 -122.388985 58.476180 -43.402400 2.867336 -2.944290 3.959579 -31.533850 21.063515 45.970851 -0.000023 0.000031 3.350410 21.149589 -10.702813 -36.709268 0.000046 -0.000031 3.756542 13.957291 -8.915250 -25.015681 0.000002 0.000003 3.100014 -0.000000 0.000002 0.000001 0.086765 -2.345284 10.030861 -1.848379 43.193058 -10.187096 -0.000004 0.000001 4.061089 -0.857849 31.138218 -4.870721 0.000008 0.000018 3.248878 -1.357848 31.138184 -4.870701 -0.000004 -0.000010 2.639717 0.000002 0.000001 0.000001 -0.104069 -0.006771 9.502953 4.438828 42.014283 -2.153243 0.000003 0.000031 4.568742 0.037076 29.950878 -1.730475 -0.000002 0.000013 3.654989 -0.462889 29.950882 -1.730439 -0.000011 -0.000013 2.741256 0.000002 -0.000000 -0.000001 -0.086761 2.267469 8.921730 15.908955 43.262169 9.560749 0.000005 0.000005 4.061115 -0.406150 31.225381 2.124921 0.000007 -0.000006 3.655010 0.593867 31.225460 2.124933 -0.000031 0.000013 2.741241 -0.000001 0.000001 -0.000001 0.173500 4.467270 7.976974 26.062026 39.392904 19.895571 0.000000 -0.000033 3.350407 -0.296006 29.812990 6.394931 0.000003 -0.000003 2.842770 1.703979 29.812980 6.394945 0.000003 0.000002 2.639699 0.000001 0.000001 -0.000000 0.000003 -0.000002 -0.000010 0.000001 -0.000001 -0.000003 -0.000024 0.000000 -0.000004 0.000000 0.000003 0.000001 -11.289955 -0.000017 0.000031 -2.742379 14.613466 3.808864 -0.000032 -0.000009 -38.200344 -1.658479 0.810595 26.040436 0.000013 0.000030 -39.900864 -10.195502 -10.751193 17.543517 0.000002 -15.261692 0.000005 1.190595 1.728358 -21.878435 -0.000037 -7.370728 0.000001 -0.000000 -0.000001 0.000001 -0.000014 0.000043 -0.000000 0.000003 0.000001 0.000004 -0.000021 -0.000002 -0.000003 0.000000 -0.000001 -0.000003 11.315624 0.000021 0.000015 -6.283042 1.471236 0.773622 -0.000033 -0.000004 -38.200325 0.342852 -0.116285 19.774087 -0.000010 -0.000016 -39.900856 18.933991 2.238100 13.270067 -0.000045 -15.261700 0.000006 -0.766163 -0.664906 -21.725099 -0.000004 -7.539979 0.000002 0.000000 0.000000 -0.000000 -0.000001 0.000000 0.000000 -0.000000 0.000001 -0.000001 -0.000010 -0.000003 -0.000007 0.000001 -0.000000 -0.000001 
